<svg width="473" height="355" viewBox="0 0 473 355" fill="none" xmlns="http://www.w3.org/2000/svg">
<g filter="url(#filter0_di_0_165)">
<rect x="73.9942" y="19.4567" width="385.757" height="267.305" rx="12.3825" fill="#C4C4C4" stroke="#C3C3C3" stroke-opacity="0.11" stroke-width="1.54781"/>
<path d="M73.9942 50.9045H459.751V274.379C459.751 281.218 454.208 286.761 447.369 286.761H86.3767C79.5381 286.761 73.9942 281.218 73.9942 274.379V50.9045Z" fill="#28282D"/>
<circle cx="93.3418" cy="35.7089" r="3.86953" fill="#28282D"/>
<circle cx="104.177" cy="35.7089" r="3.86953" fill="#28282D"/>
<circle cx="115.011" cy="35.7089" r="3.86953" fill="#28282D"/>
<rect x="89.4723" y="61.2479" width="20.1215" height="1.54781" rx="0.773906" fill="#C4C4C4"/>
<rect x="89.4723" y="67.4388" width="20.1215" height="1.54781" rx="0.773906" fill="#C4C4C4"/>
<rect x="89.4723" y="73.63" width="20.1215" height="1.54781" rx="0.773906" fill="#C4C4C4"/>
</g>
<path fill-rule="evenodd" clip-rule="evenodd" d="M408.853 160.333C386.382 154.54 368.823 136.98 363.03 114.509L360.535 104.836L358.041 114.509C352.248 136.98 334.688 154.54 312.217 160.333L302.543 162.827L312.217 165.327C334.688 171.12 352.248 188.679 358.041 211.145L360.535 220.824L363.03 211.145C368.823 188.679 386.382 171.12 408.853 165.327L418.527 162.827L408.853 160.333Z" fill="#97aadc"/>
<rect x="296.843" y="101.732" width="127.053" height="127.053" stroke="#C4C4C4" stroke-width="1.88174"/>
<rect x="116.795" y="162.674" width="111.253" height="16.8024" stroke="#C4C4C4" stroke-width="2.08777"/>
<path d="M122.8 141.613H116.999L133.777 95.9211H139.488L156.266 141.613H150.465L136.811 103.15H136.454L122.8 141.613ZM124.942 123.765H148.323V128.673H124.942V123.765ZM172.753 142.417C170.582 142.417 168.611 142.008 166.841 141.19C165.071 140.357 163.665 139.159 162.624 137.598C161.583 136.021 161.063 134.117 161.063 131.886C161.063 129.923 161.449 128.331 162.223 127.111C162.996 125.877 164.03 124.91 165.324 124.211C166.618 123.512 168.046 122.991 169.608 122.649C171.184 122.292 172.768 122.01 174.36 121.802C176.442 121.534 178.13 121.333 179.424 121.199C180.733 121.05 181.685 120.805 182.28 120.463C182.89 120.121 183.195 119.526 183.195 118.678V118.5C183.195 116.298 182.592 114.588 181.388 113.368C180.198 112.148 178.391 111.539 175.966 111.539C173.452 111.539 171.482 112.089 170.054 113.19C168.626 114.29 167.622 115.465 167.042 116.715L162.044 114.93C162.937 112.848 164.127 111.226 165.614 110.066C167.116 108.891 168.752 108.073 170.522 107.612C172.307 107.136 174.062 106.898 175.788 106.898C176.888 106.898 178.153 107.032 179.58 107.3C181.023 107.552 182.414 108.08 183.753 108.884C185.106 109.687 186.229 110.899 187.121 112.52C188.014 114.142 188.46 116.313 188.46 119.035V141.613H183.195V136.973H182.927C182.57 137.717 181.975 138.512 181.142 139.36C180.309 140.208 179.201 140.929 177.818 141.524C176.435 142.119 174.746 142.417 172.753 142.417ZM173.557 137.687C175.639 137.687 177.394 137.278 178.822 136.46C180.265 135.642 181.35 134.586 182.079 133.292C182.823 131.998 183.195 130.637 183.195 129.209V124.39C182.972 124.657 182.481 124.903 181.722 125.126C180.979 125.334 180.116 125.52 179.134 125.684C178.167 125.832 177.223 125.966 176.301 126.085C175.393 126.189 174.657 126.279 174.092 126.353C172.724 126.531 171.444 126.821 170.255 127.223C169.08 127.61 168.128 128.197 167.399 128.986C166.685 129.759 166.328 130.815 166.328 132.154C166.328 133.983 167.005 135.366 168.358 136.304C169.727 137.226 171.459 137.687 173.557 137.687Z" fill="#C3C3C3"/>
<rect x="292.276" y="96.6081" width="9.40871" height="9.40871" fill="#28282D" stroke="#C4C4C4" stroke-width="1.88174"/>
<rect x="419.294" y="96.6081" width="9.40871" height="9.40871" fill="#28282D" stroke="#C4C4C4" stroke-width="1.88174"/>
<rect x="419.294" y="223.626" width="9.40871" height="9.40871" fill="#28282D" stroke="#C4C4C4" stroke-width="1.88174"/>
<rect x="291.335" y="223.626" width="9.40871" height="9.40871" fill="#28282D" stroke="#C4C4C4" stroke-width="1.88174"/>
<path d="M425.139 231.104L429.461 247.879L432.783 241.33L440.032 239.952L425.139 231.104Z" fill="#161619" stroke="#C4C4C4" stroke-width="1.88174" stroke-linecap="round" stroke-linejoin="round"/>
<path d="M115.863 205.376H248.526" stroke="#C4C4C4" stroke-width="1.88174" stroke-linecap="round"/>
<path d="M115.393 229.271H238.647" stroke="#C4C4C4" stroke-width="1.88174" stroke-linecap="round"/>
<path d="M115.393 217.82H155.85" stroke="#C4C4C4" stroke-width="1.88174" stroke-linecap="round"/>
<path d="M162.436 217.82H229.238" stroke="#C4C4C4" stroke-width="1.88174" stroke-linecap="round"/>
<defs>
<filter id="filter0_di_0_165" x="0.773195" y="0.80625" width="471.984" height="353.531" filterUnits="userSpaceOnUse" color-interpolation-filters="sRGB">
<feFlood flood-opacity="0" result="BackgroundImageFix"/>
<feColorMatrix in="SourceAlpha" type="matrix" values="0 0 0 0 0 0 0 0 0 0 0 0 0 0 0 0 0 0 127 0" result="hardAlpha"/>
<feOffset dx="-30.1079" dy="24.4627"/>
<feGaussianBlur stdDeviation="21.1696"/>
<feComposite in2="hardAlpha" operator="out"/>
<feColorMatrix type="matrix" values="0 0 0 0 0.0708333 0 0 0 0 0.0708333 0 0 0 0 0.0708333 0 0 0 0.83 0"/>
<feBlend mode="normal" in2="BackgroundImageFix" result="effect1_dropShadow_0_165"/>
<feBlend mode="normal" in="SourceGraphic" in2="effect1_dropShadow_0_165" result="shape"/>
<feColorMatrix in="SourceAlpha" type="matrix" values="0 0 0 0 0 0 0 0 0 0 0 0 0 0 0 0 0 0 127 0" result="hardAlpha"/>
<feOffset dx="-0.940871" dy="16.9357"/>
<feGaussianBlur stdDeviation="0.940871"/>
<feComposite in2="hardAlpha" operator="arithmetic" k2="-1" k3="1"/>
<feColorMatrix type="matrix" values="0 0 0 0 1 0 0 0 0 1 0 0 0 0 1 0 0 0 0.06 0"/>
<feBlend mode="normal" in2="shape" result="effect2_innerShadow_0_165"/>
</filter>
</defs>
</svg>
