<svg width="317" height="209" viewBox="0 0 317 209" fill="none" xmlns="http://www.w3.org/2000/svg">
<rect x="1" y="1" width="314.792" height="207" rx="10.1046" fill="#FBF5EC" stroke="#C3C3C3" stroke-opacity="0.11" stroke-width="1.26307"/>
<path d="M1 25.353H315.792V197.896C315.792 203.476 311.268 208 305.688 208H11.1046C5.52396 208 1 203.476 1 197.896V25.353Z" fill="#2B65F9"/>
<ellipse cx="17.7583" cy="13.5855" rx="4.12754" ry="3.91692" fill="#2B65F9"/>
<ellipse cx="29.3154" cy="13.5854" rx="4.12754" ry="3.91692" fill="#2B65F9"/>
<ellipse cx="40.8725" cy="13.5854" rx="4.12754" ry="3.91692" fill="#2B65F9"/>
<path fill-rule="evenodd" clip-rule="evenodd" d="M274.257 115.96C255.92 111.233 241.591 96.904 236.864 78.5667L234.828 70.6725L232.793 78.5667C228.065 96.904 213.736 111.233 195.399 115.96L187.505 117.996L195.399 120.036C213.736 124.763 228.065 139.092 232.793 157.425L234.828 165.324L236.864 157.425C241.591 139.092 255.92 124.763 274.257 120.036L282.152 117.996L274.257 115.96Z" fill="#FF86B1"/>
<rect x="183.585" y="68.8719" width="102.216" height="102.216" stroke="#FBF5EC" stroke-width="3"/>
<rect x="33" y="118" width="92.4906" height="15.4151" fill="#D4FF7D"/>
<path d="M40.2929 102H34.5816L51.1003 57.0128H56.7237L73.2425 102H67.5312L54.0878 64.1299H53.7363L40.2929 102ZM42.4016 84.4269H65.4224V89.2595H42.4016V84.4269ZM89.4757 102.791C87.3376 102.791 85.3972 102.388 83.6546 101.583C81.9119 100.763 80.528 99.5837 79.5029 98.046C78.4778 96.4938 77.9653 94.6193 77.9653 92.4226C77.9653 90.4896 78.346 88.9227 79.1075 87.7218C79.869 86.5064 80.8868 85.5545 82.1608 84.8662C83.4349 84.1779 84.8408 83.6654 86.3784 83.3285C87.9307 82.9771 89.4903 82.6988 91.0572 82.4938C93.1074 82.2302 94.7696 82.0325 96.0436 81.9007C97.3323 81.7543 98.2696 81.5127 98.8553 81.1758C99.4557 80.839 99.7559 80.2532 99.7559 79.4185V79.2428C99.7559 77.0754 99.1629 75.3913 97.9767 74.1905C96.8051 72.9897 95.0258 72.3893 92.6388 72.3893C90.1639 72.3893 88.2236 72.9311 86.8177 74.0148C85.4119 75.0985 84.4234 76.2554 83.8523 77.4855L78.9318 75.7282C79.8104 73.678 80.982 72.0817 82.4464 70.9395C83.9255 69.7826 85.5364 68.9771 87.279 68.5232C89.0363 68.0546 90.7644 67.8203 92.4631 67.8203C93.5468 67.8203 94.7915 67.952 96.1974 68.2156C97.6179 68.4646 98.9871 68.9845 100.305 69.7753C101.638 70.5661 102.743 71.7596 103.622 73.3558C104.501 74.952 104.94 77.0901 104.94 79.77V102H99.7559V97.431H99.4924C99.1409 98.1632 98.5551 98.9467 97.735 99.7814C96.915 100.616 95.824 101.326 94.462 101.912C93.1001 102.498 91.438 102.791 89.4757 102.791ZM90.2665 98.1339C92.3167 98.1339 94.0447 97.7312 95.4505 96.9258C96.871 96.1203 97.9401 95.0806 98.6576 93.8065C99.3898 92.5325 99.7559 91.1925 99.7559 89.7867V85.0419C99.5363 85.3055 99.053 85.5472 98.3062 85.7668C97.574 85.9718 96.7246 86.1549 95.7581 86.316C94.8062 86.4624 93.8763 86.5942 92.9683 86.7114C92.075 86.8139 91.3501 86.9017 90.7937 86.975C89.4464 87.1507 88.187 87.4363 87.0154 87.8317C85.8585 88.2124 84.9213 88.7909 84.2037 89.567C83.5008 90.3285 83.1493 91.3683 83.1493 92.6862C83.1493 94.4875 83.8157 95.8494 85.1483 96.772C86.4956 97.6799 88.2016 98.1339 90.2665 98.1339Z" fill="#FBF5EC"/>
<rect x="179.126" y="63.9587" width="7.67787" height="7.67787" fill="#FBF5EC" stroke="#FBF5EC" stroke-width="1.53557"/>
<rect x="282.778" y="63.9587" width="7.67787" height="7.67787" fill="#FBF5EC" stroke="#FBF5EC" stroke-width="1.53557"/>
<rect x="282.778" y="167.61" width="7.67787" height="7.67787" fill="#FBF5EC" stroke="#FBF5EC" stroke-width="1.53557"/>
<rect x="178.359" y="167.61" width="7.67787" height="7.67787" fill="#FBF5EC" stroke="#FBF5EC" stroke-width="1.53557"/>
<path d="M35.1665 152.717H143.424" stroke="#FBF5EC" stroke-width="3" stroke-linecap="round"/>
<path d="M34.7826 172.216H135.363" stroke="#FBF5EC" stroke-width="3" stroke-linecap="round"/>
<path d="M34.7826 162.872H67.7974" stroke="#FBF5EC" stroke-width="3" stroke-linecap="round"/>
<path d="M77 163L128 163" stroke="#FBF5EC" stroke-width="3" stroke-linecap="round"/>
</svg>
