<svg width="254" height="279" viewBox="0 0 254 279" fill="none" xmlns="http://www.w3.org/2000/svg">
<rect y="277.715" width="58.7125" height="253.071" transform="rotate(-90 0 277.715)" fill="#2B65F9"/>
<path d="M16.1321 254.433V219.003" stroke="#FBF5EC" stroke-width="2.65459"/>
<path d="M237.947 254.433V219.003" stroke="#FBF5EC" stroke-width="2.65459"/>
<path d="M217.782 237.224L217.782 219.003" stroke="#FBF5EC" stroke-width="2.65459"/>
<path d="M197.617 237.224L197.617 219.003" stroke="#FBF5EC" stroke-width="2.65459"/>
<path d="M177.452 237.224L177.452 219.003" stroke="#FBF5EC" stroke-width="2.65459"/>
<path d="M157.287 237.224L157.287 219.003" stroke="#FBF5EC" stroke-width="2.65459"/>
<path d="M137.122 237.224L137.122 219.003" stroke="#FBF5EC" stroke-width="2.65459"/>
<path d="M116.957 237.224L116.957 219.003" stroke="#FBF5EC" stroke-width="2.65459"/>
<path d="M96.7921 237.224L96.7921 219.003" stroke="#FBF5EC" stroke-width="2.65459"/>
<path d="M76.6271 237.224L76.6271 219.003" stroke="#FBF5EC" stroke-width="2.65459"/>
<path d="M56.462 237.224L56.462 219.003" stroke="#FBF5EC" stroke-width="2.65459"/>
<path d="M36.297 237.224L36.297 219.003" stroke="#FBF5EC" stroke-width="2.65459"/>
<rect x="81.9951" y="232.973" width="88.2228" height="45.0704" fill="#FF86B1"/>
<path d="M110.763 232.015V278.044" stroke="#FBF5EC" stroke-width="3.53945"/>
<path d="M139.532 232.015V278.044" stroke="#FBF5EC" stroke-width="3.53945"/>
<path d="M126.106 103.101L169.917 232.87H82.2954L126.106 103.101Z" fill="#FBF5EC"/>
<path fill-rule="evenodd" clip-rule="evenodd" d="M145.016 159.112H107.197L126.106 103.101L145.016 159.112Z" fill="#FF86B1"/>
<path fill-rule="evenodd" clip-rule="evenodd" d="M172.107 53.6719C150.78 48.1738 134.115 31.5084 128.617 10.1814L126.249 1L123.882 10.1814C118.384 31.5084 101.718 48.1738 80.3912 53.6719L71.2098 56.0394L80.3912 58.4118C101.718 63.9098 118.384 80.5753 123.882 101.897L126.249 111.084L128.617 101.897C134.115 80.5753 150.78 63.9098 172.107 58.4118L181.289 56.0394L172.107 53.6719Z" stroke="#FBF5EC" stroke-width="3.48914"/>
</svg>
