<svg width="435" height="204" viewBox="0 0 435 204" fill="none" xmlns="http://www.w3.org/2000/svg">
<path d="M2 150.854C9.16348 134.352 23.8412 119.379 35.62 106.202C60.7554 78.0825 90.0837 47.2582 127.917 37.5325C135.657 35.5428 146.714 32.693 154.774 34.2198C165.375 36.2277 168.794 46.6854 170.105 56.1748C174.531 88.2099 169.522 115.505 155.464 144.919C152.955 150.171 153.268 148.103 150.754 153.358C150.603 153.672 147.914 158.994 147.647 158.327C144.214 149.747 152.884 146.508 157.19 141.054C172.9 121.161 193.748 102.367 217.32 92.33C227.237 88.1071 246.025 82.2131 255.841 89.8455C266.808 98.3727 265.782 113.867 265.782 126.216C265.782 135.63 264.411 144.764 261.502 153.753C260.035 158.286 257.197 162.437 255.979 167.004C255.671 168.16 254.7 170.185 254.599 167.556C254.439 163.416 255.903 161.588 258.05 158.17C261.363 152.895 266.111 149.263 270.753 145.195C280.274 136.85 289.542 127.967 299.885 120.626C323.789 103.661 350.01 94.8183 379.414 95.8497C396.503 96.4492 408.523 104.453 420.351 116.278C426.872 122.797 432.139 134.493 432.294 143.815C432.338 146.442 433.757 156.541 431.052 157.894" stroke="#D4FF7D" stroke-width="2.88873" stroke-linecap="round"/>
<rect x="79.0376" y="13.091" width="282.812" height="177.292" stroke="#FBF5EC" stroke-width="2.88873"/>
<rect x="70.1556" y="4.45094" width="18.918" height="18.918" fill="#FBF5EC" stroke="#FBF5EC" stroke-width="3.32106"/>
<rect x="70.1556" y="182.681" width="18.918" height="18.918" fill="#FBF5EC" stroke="#FBF5EC" stroke-width="3.32106"/>
<rect x="353.553" y="182.681" width="18.918" height="18.918" fill="#FBF5EC" stroke="#FBF5EC" stroke-width="3.32106"/>
<rect x="353.553" y="4.45094" width="18.918" height="18.918" fill="#FBF5EC" stroke="#FBF5EC" stroke-width="3.32106"/>
<circle cx="152.817" cy="143.114" r="19.4866" transform="rotate(23.4888 152.817 143.114)" fill="#2B65F9"/>
<path d="M341.287 139.378C334.874 144.856 327.446 149.018 319.425 151.625C311.404 154.232 302.948 155.234 294.54 154.573C286.132 153.912 277.936 151.601 270.421 147.773C262.906 143.945 256.219 138.674 250.741 132.261C245.262 125.849 241.101 118.42 238.494 110.399C235.887 102.378 234.885 93.9222 235.546 85.5142C236.207 77.1062 238.518 68.9106 242.346 61.3955C246.174 53.8804 251.445 47.1929 257.857 41.7149L299.572 90.5466L341.287 139.378Z" fill="#FF86B1"/>
<path d="M220.156 136.739C239.721 136.739 255.582 120.879 255.582 101.314C255.582 81.749 239.721 65.8884 220.156 65.8884C200.591 65.8884 184.731 81.749 184.731 101.314C184.731 120.879 200.591 136.739 220.156 136.739Z" fill="#FBF5EC"/>
<path d="M210.95 81.0457C209.305 80.0956 207.248 81.2831 207.248 83.1833V118.58C207.248 120.481 209.306 121.668 210.951 120.717L241.587 103.01C243.231 102.059 243.231 99.685 241.586 98.7352L210.95 81.0457Z" fill="#18181B"/>
</svg>
