<svg width="461" height="346" viewBox="0 0 461 346" fill="none" xmlns="http://www.w3.org/2000/svg">
<g filter="url(#filter0_di_0_131)">
<rect x="72.2556" y="18.9121" width="375.662" height="260.309" rx="12.0584" fill="#C4C4C4" stroke="#C3C3C3" stroke-opacity="0.11" stroke-width="1.50731"/>
<path d="M72.2556 49.5367H447.917V267.163C447.917 273.823 442.519 279.221 435.859 279.221H84.3141C77.6544 279.221 72.2556 273.823 72.2556 267.163V49.5367Z" fill="#28282D"/>
<circle cx="91.0968" cy="34.7388" r="3.76826" fill="#28282D"/>
<circle cx="101.648" cy="34.7388" r="3.76826" fill="#28282D"/>
<circle cx="112.199" cy="34.7388" r="3.76826" fill="#28282D"/>
</g>
<rect x="92.5879" y="79.686" width="334.029" height="168.912" rx="14.2342" fill="#8A8A8F" fill-opacity="0.52"/>
<path d="M260.086 215.402C288.427 215.402 311.401 192.427 311.401 164.087C311.401 135.747 288.427 112.772 260.086 112.772C231.746 112.772 208.772 135.747 208.772 164.087C208.772 192.427 231.746 215.402 260.086 215.402Z" fill="#97aadc"/>
<path d="M247.689 135.268C244.889 133.652 241.389 135.672 241.389 138.906V188.014C241.389 191.248 244.891 193.269 247.691 191.65L290.193 167.084C292.992 165.466 292.991 161.426 290.192 159.81L247.689 135.268Z" fill="#28282D"/>
<defs>
<filter id="filter0_di_0_131" x="0.950819" y="0.749725" width="459.632" height="344.279" filterUnits="userSpaceOnUse" color-interpolation-filters="sRGB">
<feFlood flood-opacity="0" result="BackgroundImageFix"/>
<feColorMatrix in="SourceAlpha" type="matrix" values="0 0 0 0 0 0 0 0 0 0 0 0 0 0 0 0 0 0 127 0" result="hardAlpha"/>
<feOffset dx="-29.32" dy="23.8225"/>
<feGaussianBlur stdDeviation="20.6156"/>
<feComposite in2="hardAlpha" operator="out"/>
<feColorMatrix type="matrix" values="0 0 0 0 0.0708333 0 0 0 0 0.0708333 0 0 0 0 0.0708333 0 0 0 0.83 0"/>
<feBlend mode="normal" in2="BackgroundImageFix" result="effect1_dropShadow_0_131"/>
<feBlend mode="normal" in="SourceGraphic" in2="effect1_dropShadow_0_131" result="shape"/>
<feColorMatrix in="SourceAlpha" type="matrix" values="0 0 0 0 0 0 0 0 0 0 0 0 0 0 0 0 0 0 127 0" result="hardAlpha"/>
<feOffset dx="-0.916249" dy="16.4925"/>
<feGaussianBlur stdDeviation="0.916249"/>
<feComposite in2="hardAlpha" operator="arithmetic" k2="-1" k3="1"/>
<feColorMatrix type="matrix" values="0 0 0 0 1 0 0 0 0 1 0 0 0 0 1 0 0 0 0.06 0"/>
<feBlend mode="normal" in2="shape" result="effect2_innerShadow_0_131"/>
</filter>
</defs>
</svg>
