<svg width="474" height="419" viewBox="0 0 474 419" fill="none" xmlns="http://www.w3.org/2000/svg">
<g filter="url(#filter0_di_0_145)">
<rect x="87.9723" y="46.5276" width="131.077" height="222.5" rx="24.3697" fill="#28282D"/>
</g>
<g filter="url(#filter1_di_0_145)">
<rect x="291.747" y="126.936" width="131.077" height="220.546" rx="24.3697" fill="#28282D"/>
</g>
<rect x="107.799" y="67.4558" width="91.4233" height="123.366" rx="7.7104" stroke="#858585" stroke-width="2.20297"/>
<rect x="311.574" y="147.864" width="91.4233" height="91.4233" rx="7.7104" 
		fill="#858585"
		stroke="#858585"
stroke-width="2.20297"/>
<rect x="105.596" y="208.446" width="94.7277" height="18.7252" rx="5.50743" stroke="#97aadc" stroke-width="2.20297"/>
<rect x="311.574" y="307.58" width="94.7277" height="18.7252" rx="5.50743" stroke="#97aadc" stroke-width="2.20297"/>
<path d="M107.799 243.143H200.875" stroke="#858585" stroke-width="2.20297" stroke-linecap="round"/>
<path d="M311.574 252.505H402.997" stroke="#858585" stroke-width="2.20297" stroke-linecap="round"/>
<path d="M311.574 273.433H397.49" stroke="#858585" stroke-width="2.20297" stroke-linecap="round"/>
<path d="M311.574 263.52H346.821" stroke="#858585" stroke-width="2.20297" stroke-linecap="round"/>
<path d="M356.735 263.52L388.678 263.52" stroke="#858585" stroke-width="2.20297" stroke-linecap="round"/>
<path d="M220.701 107.33C219.606 107.33 218.719 108.217 218.719 109.312C218.719 110.407 219.606 111.295 220.701 111.295V107.33ZM292.048 225.819C292.822 225.045 292.822 223.79 292.048 223.016L279.43 210.398C278.656 209.624 277.4 209.624 276.626 210.398C275.852 211.172 275.852 212.428 276.626 213.202L287.842 224.418L276.626 235.633C275.852 236.407 275.852 237.663 276.626 238.437C277.4 239.211 278.656 239.211 279.43 238.437L292.048 225.819ZM255.068 145.661V203.489H259.033V145.661H255.068ZM277.978 226.4H290.646V222.435H277.978V226.4ZM255.068 203.489C255.068 216.143 265.325 226.4 277.978 226.4V222.435C267.515 222.435 259.033 213.953 259.033 203.489H255.068ZM220.701 111.295C239.681 111.295 255.068 126.681 255.068 145.661H259.033C259.033 124.491 241.871 107.33 220.701 107.33V111.295Z" fill="#858585"/>
<defs>
<filter id="filter0_di_0_145" x="0.241447" y="0.22526" width="269.984" height="361.407" filterUnits="userSpaceOnUse" color-interpolation-filters="sRGB">
<feFlood flood-opacity="0" result="BackgroundImageFix"/>
<feColorMatrix in="SourceAlpha" type="matrix" values="0 0 0 0 0 0 0 0 0 0 0 0 0 0 0 0 0 0 127 0" result="hardAlpha"/>
<feOffset dx="-18.2773" dy="23.1512"/>
<feGaussianBlur stdDeviation="34.7268"/>
<feComposite in2="hardAlpha" operator="out"/>
<feColorMatrix type="matrix" values="0 0 0 0 0 0 0 0 0 0 0 0 0 0 0 0 0 0 0.27 0"/>
<feBlend mode="normal" in2="BackgroundImageFix" result="effect1_dropShadow_0_145"/>
<feBlend mode="normal" in="SourceGraphic" in2="effect1_dropShadow_0_145" result="shape"/>
<feColorMatrix in="SourceAlpha" type="matrix" values="0 0 0 0 0 0 0 0 0 0 0 0 0 0 0 0 0 0 127 0" result="hardAlpha"/>
<feOffset dy="4.87394"/>
<feGaussianBlur stdDeviation="2.43697"/>
<feComposite in2="hardAlpha" operator="arithmetic" k2="-1" k3="1"/>
<feColorMatrix type="matrix" values="0 0 0 0 1 0 0 0 0 1 0 0 0 0 1 0 0 0 0.08 0"/>
<feBlend mode="normal" in2="shape" result="effect2_innerShadow_0_145"/>
</filter>
<filter id="filter1_di_0_145" x="204.016" y="80.6337" width="269.984" height="359.453" filterUnits="userSpaceOnUse" color-interpolation-filters="sRGB">
<feFlood flood-opacity="0" result="BackgroundImageFix"/>
<feColorMatrix in="SourceAlpha" type="matrix" values="0 0 0 0 0 0 0 0 0 0 0 0 0 0 0 0 0 0 127 0" result="hardAlpha"/>
<feOffset dx="-18.2773" dy="23.1512"/>
<feGaussianBlur stdDeviation="34.7268"/>
<feComposite in2="hardAlpha" operator="out"/>
<feColorMatrix type="matrix" values="0 0 0 0 0 0 0 0 0 0 0 0 0 0 0 0 0 0 0.27 0"/>
<feBlend mode="normal" in2="BackgroundImageFix" result="effect1_dropShadow_0_145"/>
<feBlend mode="normal" in="SourceGraphic" in2="effect1_dropShadow_0_145" result="shape"/>
<feColorMatrix in="SourceAlpha" type="matrix" values="0 0 0 0 0 0 0 0 0 0 0 0 0 0 0 0 0 0 127 0" result="hardAlpha"/>
<feOffset dy="4.87394"/>
<feGaussianBlur stdDeviation="2.43697"/>
<feComposite in2="hardAlpha" operator="arithmetic" k2="-1" k3="1"/>
<feColorMatrix type="matrix" values="0 0 0 0 1 0 0 0 0 1 0 0 0 0 1 0 0 0 0.08 0"/>
<feBlend mode="normal" in2="shape" result="effect2_innerShadow_0_145"/>
</filter>
</defs>
</svg>
